<?xml version="1.0" encoding="UTF-8" standalone="no"?><!DOCTYPE svg PUBLIC "-//W3C//DTD SVG 1.1//EN" "http://www.w3.org/Graphics/SVG/1.1/DTD/svg11.dtd"><svg width="260px" height="42px" viewBox="0 0 260 42" version="1.1" xmlns="http://www.w3.org/2000/svg" xmlns:xlink="http://www.w3.org/1999/xlink" xml:space="preserve" xmlns:serif="http://www.serif.com/" style="fill-rule:evenodd;clip-rule:evenodd;stroke-linejoin:round;stroke-miterlimit:1.41421;"><g id="Group"><path id="Shape" d="M62.861,26.363l-10.811,0l-1.875,4.882c-0.043,0.087 -0.131,0.175 -0.218,0.305c-0.087,0.131 -0.261,0.175 -0.436,0.175l-0.61,0c-0.174,0 -0.305,-0.044 -0.436,-0.175c-0.131,-0.13 -0.174,-0.261 -0.174,-0.436c0,-0.087 0,-0.218 0.043,-0.348l7.716,-19.791c0.087,-0.218 0.175,-0.349 0.305,-0.436c0.131,-0.087 0.306,-0.131 0.567,-0.131l1.046,0c0.262,0 0.436,0.044 0.567,0.131c0.131,0.087 0.218,0.261 0.305,0.436l7.716,19.791c0.044,0.13 0.044,0.218 0.044,0.348c0,0.175 -0.044,0.306 -0.175,0.436c-0.131,0.131 -0.261,0.175 -0.436,0.175l-0.566,0c-0.218,0 -0.349,-0.044 -0.436,-0.175c-0.088,-0.13 -0.175,-0.218 -0.218,-0.305l-1.918,-4.882Zm-10.07,-1.831l9.329,0l-4.665,-12.031l-4.664,12.031Z" style="fill:#444;"/><path id="Shape1" serif:id="Shape" d="M70.664,14.157l0,16.87c0,0.436 -0.218,0.654 -0.698,0.654l-0.567,0c-0.435,0 -0.653,-0.218 -0.653,-0.654l0,-20.009c0,-0.479 0.218,-0.697 0.653,-0.697l0.654,0c0.218,0 0.349,0.044 0.436,0.131c0.087,0.087 0.175,0.174 0.218,0.218l11.247,17.219l0,-16.871c0,-0.479 0.218,-0.697 0.654,-0.697l0.567,0c0.479,0 0.697,0.218 0.697,0.697l0,19.966c0,0.479 -0.218,0.697 -0.654,0.697l-0.654,0c-0.218,0 -0.348,-0.043 -0.436,-0.174c-0.087,-0.087 -0.174,-0.175 -0.218,-0.218l-11.246,-17.132Z" style="fill:#444;"/><path id="Shape2" serif:id="Shape" d="M95.25,10.321c1.613,0 2.964,0.174 4.01,0.523c1.09,0.349 1.962,0.872 2.616,1.569c0.654,0.698 1.133,1.57 1.395,2.572c0.305,1.047 0.436,2.224 0.436,3.531c0,0.916 0.043,1.744 0.043,2.441c0,0.698 0,1.526 -0.043,2.442c-0.044,1.395 -0.218,2.615 -0.48,3.661c-0.262,1.047 -0.741,1.918 -1.395,2.572c-0.654,0.698 -1.482,1.177 -2.528,1.526c-1.046,0.349 -2.354,0.523 -3.924,0.523l-6.669,0c-0.436,0 -0.654,-0.218 -0.654,-0.654l0,-20.009c0,-0.479 0.218,-0.697 0.654,-0.697l6.539,0Zm6.582,8.413c0,-1.133 -0.131,-2.092 -0.392,-2.92c-0.262,-0.829 -0.611,-1.526 -1.177,-2.049c-0.567,-0.523 -1.221,-0.959 -2.049,-1.221c-0.828,-0.261 -1.875,-0.392 -3.095,-0.392l-5.1,0l0,17.698l5.231,0c1.22,0 2.223,-0.131 3.051,-0.348c0.828,-0.262 1.482,-0.611 2.005,-1.134c0.523,-0.523 0.872,-1.177 1.134,-2.049c0.218,-0.828 0.348,-1.831 0.392,-3.051l0,-1.221l0,-1.046l0,-1.046c0,-0.349 0,-0.785 0,-1.221Z" style="fill:#444;"/><path id="Shape3" serif:id="Shape" d="M114.997,10.321c2.136,0 3.836,0.523 5.1,1.526c1.264,1.002 1.918,2.572 1.918,4.62c0,1.657 -0.392,2.965 -1.22,3.924c-0.785,0.959 -1.918,1.613 -3.4,1.961l4.925,8.37c0.044,0.131 0.088,0.218 0.088,0.349c0,0.174 -0.044,0.305 -0.175,0.436c-0.131,0.131 -0.261,0.174 -0.436,0.174l-0.348,0c-0.349,0 -0.611,-0.087 -0.741,-0.261c-0.175,-0.175 -0.306,-0.349 -0.393,-0.567l-4.839,-8.195l-6.277,0l0,8.369c0,0.436 -0.218,0.654 -0.697,0.654l-0.567,0c-0.436,0 -0.654,-0.218 -0.654,-0.654l0,-20.009c0,-0.479 0.218,-0.697 0.654,-0.697l7.062,0Zm-5.841,10.506l5.71,0c3.488,0 5.231,-1.439 5.231,-4.316c0,-2.877 -1.743,-4.316 -5.231,-4.316l-5.71,0l0,8.632Z" style="fill:#444;"/><path id="Shape4" serif:id="Shape" d="M132.434,10.016c1.177,0 2.267,0.174 3.226,0.523c0.959,0.349 1.831,0.872 2.528,1.569c0.697,0.698 1.264,1.57 1.657,2.616c0.392,1.046 0.61,2.267 0.653,3.705c0.044,0.916 0.044,1.787 0.044,2.572c0,0.785 0,1.657 -0.044,2.572c-0.087,2.877 -0.828,5.013 -2.179,6.364c-1.395,1.352 -3.357,2.049 -5.842,2.049c-2.528,0 -4.49,-0.697 -5.885,-2.049c-1.394,-1.351 -2.092,-3.487 -2.179,-6.364c-0.044,-0.915 -0.044,-1.787 -0.044,-2.572c0,-0.785 0,-1.656 0.044,-2.572c0.043,-1.438 0.261,-2.659 0.654,-3.705c0.392,-1.046 0.959,-1.918 1.656,-2.616c0.698,-0.697 1.526,-1.22 2.485,-1.569c0.959,-0.349 2.049,-0.523 3.226,-0.523Zm0,1.831c-0.872,0 -1.657,0.13 -2.398,0.392c-0.741,0.262 -1.395,0.654 -1.918,1.221c-0.523,0.566 -1.002,1.264 -1.308,2.092c-0.305,0.872 -0.479,1.874 -0.523,3.051c0,0.48 -0.043,0.916 -0.043,1.265l0,2.266c0,0.393 0.043,0.829 0.043,1.265c0.044,1.22 0.218,2.223 0.523,3.051c0.306,0.828 0.742,1.526 1.265,2.092c0.523,0.567 1.177,0.96 1.918,1.221c0.741,0.262 1.525,0.392 2.397,0.392c0.872,0 1.657,-0.13 2.398,-0.392c0.741,-0.261 1.351,-0.654 1.918,-1.221c0.523,-0.566 0.959,-1.264 1.264,-2.092c0.305,-0.828 0.48,-1.874 0.523,-3.051c0,-0.436 0.044,-0.872 0.044,-1.265l0,-1.133l0,-1.133c0,-0.393 0,-0.829 -0.044,-1.265c-0.043,-1.177 -0.218,-2.179 -0.523,-3.051c-0.305,-0.872 -0.741,-1.569 -1.308,-2.092c-0.566,-0.524 -1.177,-0.959 -1.918,-1.221c-0.654,-0.262 -1.438,-0.392 -2.31,-0.392Z" style="fill:#444;"/><path id="Shape5" serif:id="Shape" d="M145.817,31.027c0,0.436 -0.218,0.654 -0.654,0.654l-0.567,0c-0.436,0 -0.654,-0.218 -0.654,-0.654l0,-20.009c0,-0.436 0.218,-0.653 0.654,-0.653l0.567,0c0.436,0 0.654,0.217 0.654,0.653l0,20.009Z" style="fill:#444;"/><path id="Shape6" serif:id="Shape" d="M157.194,10.321c1.613,0 2.965,0.174 4.011,0.523c1.09,0.349 1.961,0.872 2.615,1.569c0.654,0.698 1.134,1.57 1.395,2.572c0.305,1.047 0.436,2.224 0.436,3.531c0,0.916 0.044,1.744 0.044,2.441c0,0.698 0,1.526 -0.044,2.442c-0.043,1.395 -0.218,2.615 -0.479,3.661c-0.262,1.047 -0.741,1.918 -1.395,2.572c-0.654,0.698 -1.482,1.177 -2.529,1.526c-1.046,0.349 -2.354,0.523 -3.923,0.523l-6.67,0c-0.436,0 -0.653,-0.218 -0.653,-0.654l0,-20.009c0,-0.479 0.217,-0.697 0.653,-0.697l6.539,0Zm6.583,8.413c0,-1.133 -0.131,-2.092 -0.393,-2.92c-0.261,-0.829 -0.61,-1.526 -1.177,-2.049c-0.523,-0.523 -1.22,-0.959 -2.048,-1.221c-0.829,-0.261 -1.875,-0.392 -3.096,-0.392l-5.1,0l0,17.698l5.231,0c1.221,0 2.223,-0.131 3.052,-0.348c0.828,-0.262 1.482,-0.611 2.005,-1.134c0.523,-0.523 0.872,-1.177 1.133,-2.049c0.218,-0.828 0.349,-1.831 0.393,-3.051l0,-1.221l0,-1.046l0,-1.046c0,-0.349 0,-0.785 0,-1.221Z" style="fill:#444;"/><path id="Shape7" serif:id="Shape" d="M181.911,28.194l3.575,-17.394c0.043,-0.305 0.305,-0.435 0.653,-0.435l0.654,0c0.175,0 0.306,0.043 0.436,0.174c0.131,0.131 0.175,0.261 0.175,0.436c0,0.043 0,0.174 -0.044,0.349l-4.185,19.66c-0.131,0.479 -0.392,0.741 -0.872,0.741l-0.479,0c-0.48,0 -0.785,-0.262 -0.959,-0.741l-4.054,-12.86l-4.054,12.86c-0.175,0.479 -0.48,0.741 -0.959,0.741l-0.436,0c-0.436,0 -0.741,-0.262 -0.872,-0.741l-4.185,-19.66c-0.044,-0.218 -0.044,-0.306 -0.044,-0.349c0,-0.175 0.044,-0.305 0.175,-0.436c0.131,-0.131 0.261,-0.174 0.436,-0.174l0.654,0c0.392,0 0.61,0.13 0.653,0.435l3.575,17.394l3.793,-12.424c0.043,-0.174 0.174,-0.349 0.305,-0.48c0.13,-0.13 0.348,-0.218 0.654,-0.218l0.653,0c0.306,0 0.48,0.088 0.654,0.218c0.131,0.131 0.262,0.306 0.306,0.48l3.792,12.424Z" style="fill:#2eb4d7;"/><path id="Shape8" serif:id="Shape" d="M197.168,10.016c1.177,0 2.267,0.174 3.226,0.523c0.959,0.349 1.831,0.872 2.529,1.569c0.697,0.698 1.264,1.57 1.656,2.616c0.392,1.046 0.61,2.267 0.654,3.705c0.043,0.916 0.043,1.787 0.043,2.572c0,0.785 0,1.657 -0.043,2.572c-0.087,2.877 -0.828,5.013 -2.18,6.364c-1.395,1.352 -3.356,2.049 -5.841,2.049c-2.528,0 -4.49,-0.697 -5.885,-2.049c-1.395,-1.351 -2.092,-3.487 -2.18,-6.364c-0.043,-0.915 -0.043,-1.787 -0.043,-2.572c0,-0.785 0,-1.656 0.043,-2.572c0.044,-1.438 0.262,-2.659 0.654,-3.705c0.393,-1.046 0.959,-1.918 1.657,-2.616c0.697,-0.697 1.525,-1.22 2.485,-1.569c0.959,-0.349 2.048,-0.523 3.225,-0.523Zm0,1.831c-0.872,0 -1.656,0.13 -2.397,0.392c-0.741,0.262 -1.395,0.654 -1.918,1.221c-0.523,0.566 -1.003,1.264 -1.308,2.092c-0.305,0.872 -0.48,1.874 -0.523,3.051c0,0.48 -0.044,0.916 -0.044,1.265l0,2.266c0,0.393 0.044,0.829 0.044,1.265c0.043,1.22 0.218,2.223 0.523,3.051c0.305,0.828 0.741,1.526 1.264,2.092c0.523,0.567 1.177,0.96 1.918,1.221c0.741,0.262 1.526,0.392 2.398,0.392c0.872,0 1.656,-0.13 2.397,-0.392c0.741,-0.261 1.352,-0.654 1.918,-1.221c0.523,-0.566 0.959,-1.264 1.265,-2.092c0.305,-0.828 0.479,-1.874 0.523,-3.051c0,-0.436 0.043,-0.872 0.043,-1.265l0,-1.133l0,-1.133c0,-0.393 0,-0.829 -0.043,-1.265c-0.044,-1.177 -0.218,-2.179 -0.523,-3.051c-0.306,-0.872 -0.742,-1.569 -1.308,-2.092c-0.567,-0.524 -1.177,-0.959 -1.918,-1.221c-0.654,-0.262 -1.439,-0.392 -2.311,-0.392Z" style="fill:#2eb4d7;"/><path id="Shape9" serif:id="Shape" d="M216.393,10.321c2.136,0 3.836,0.523 5.1,1.526c1.264,1.002 1.918,2.572 1.918,4.62c0,1.657 -0.392,2.965 -1.221,3.924c-0.784,0.959 -1.918,1.613 -3.4,1.961l4.926,8.37c0.044,0.131 0.087,0.218 0.087,0.349c0,0.174 -0.043,0.305 -0.174,0.436c-0.131,0.131 -0.262,0.174 -0.436,0.174l-0.349,0c-0.349,0 -0.61,-0.087 -0.741,-0.261c-0.174,-0.175 -0.305,-0.349 -0.392,-0.567l-4.839,-8.195l-6.277,0l0,8.369c0,0.436 -0.218,0.654 -0.698,0.654l-0.61,0c-0.436,0 -0.654,-0.218 -0.654,-0.654l0,-20.009c0,-0.479 0.218,-0.697 0.654,-0.697l7.106,0Zm-5.842,10.506l5.711,0c3.487,0 5.231,-1.439 5.231,-4.316c0,-2.877 -1.744,-4.316 -5.231,-4.316l-5.711,0l0,8.632Z" style="fill:#2eb4d7;"/><path id="Shape10" serif:id="Shape" d="M228.555,29.85l10.505,0c0.48,0 0.698,0.218 0.698,0.698l0,0.436c0,0.436 -0.218,0.654 -0.698,0.654l-11.769,0c-0.436,0 -0.654,-0.218 -0.654,-0.654l0,-20.009c0,-0.436 0.218,-0.654 0.654,-0.654l0.566,0c0.436,0 0.654,0.218 0.654,0.654l0,18.875l0.044,0Z" style="fill:#2eb4d7;"/><path id="Shape11" serif:id="Shape" d="M249,10.321c1.612,0 2.964,0.174 4.01,0.523c1.09,0.349 1.962,0.872 2.616,1.569c0.653,0.698 1.133,1.57 1.394,2.572c0.306,1.047 0.436,2.224 0.436,3.531c0,0.916 0.044,1.744 0.044,2.441c0,0.698 0,1.526 -0.044,2.442c-0.043,1.395 -0.218,2.615 -0.479,3.661c-0.262,1.047 -0.741,1.918 -1.395,2.572c-0.654,0.698 -1.482,1.177 -2.528,1.526c-1.047,0.349 -2.354,0.523 -3.924,0.523l-6.669,0c-0.436,0 -0.654,-0.218 -0.654,-0.654l0,-20.009c0,-0.479 0.218,-0.697 0.654,-0.697l6.539,0Zm6.538,8.413c0,-1.133 -0.13,-2.092 -0.392,-2.92c-0.262,-0.829 -0.61,-1.526 -1.177,-2.049c-0.523,-0.523 -1.221,-0.959 -2.049,-1.221c-0.828,-0.261 -1.874,-0.392 -3.095,-0.392l-5.1,0l0,17.698l5.231,0c1.221,0 2.223,-0.131 3.051,-0.348c0.829,-0.262 1.483,-0.611 2.006,-1.134c0.523,-0.523 0.871,-1.177 1.133,-2.049c0.218,-0.828 0.349,-1.831 0.392,-3.051l0,-1.221l0,-1.046l0,-1.046l0,-1.221Z" style="fill:#2eb4d7;"/></g><g id="Group1" serif:id="Group"><ellipse id="Achtergrond" cx="20.665" cy="21" rx="16.778" ry="16.777" style="fill:#1eb3e1;"/><path id="Cirkel" d="M20.69,2.859c10.038,0 18.139,8.101 18.139,18.19c0,10.088 -8.25,18.239 -18.438,18.09c-9.84,-0.15 -17.94,-8.151 -17.891,-18.19c0.05,-9.989 8.151,-18.09 18.19,-18.09Zm-15.854,18.14c0.05,8.896 7.206,15.704 15.555,15.853c8.747,0.15 15.953,-6.907 16.102,-15.555c0.149,-8.796 -7.007,-16.102 -15.803,-16.102c-8.698,0 -15.854,7.107 -15.854,15.804Z" style="fill:#444;"/><path id="Onderkant" d="M29.489,18.544l0.167,0c1.4,0 2.536,1.165 2.536,2.6c0,1.435 -1.136,2.6 -2.536,2.6c-0.022,0 -0.044,0 -0.066,-0.001l-0.101,0m0,-5.2l0,5.267l-0.002,0.001l0,5.467c0,1.341 -1.193,2.484 -2.535,2.484c-1.391,0.05 -2.584,-0.994 -2.684,-2.335c0,-0.248 -0.098,-0.298 -0.347,-0.299l-6.809,0l0,0.249c-0.149,1.391 -1.292,2.435 -2.684,2.385c-1.441,0 -2.584,-1.192 -2.584,-2.683l0,-5.268l-0.149,0c-1.491,-0.149 -2.584,-1.292 -2.535,-2.734c0.05,-1.441 1.243,-2.534 2.734,-2.534l17.595,0Z" style="fill:#444;"/><g id="Hoofd"><path id="Hoofd-zonder-ogen" serif:id="Hoofd zonder ogen" d="M11.794,17.4c0,-0.845 0.149,-1.64 0.497,-2.386c0.795,-1.789 2.137,-3.031 3.926,-3.777c3.728,-1.59 7.356,-1.341 10.636,1.143c1.54,1.143 2.485,2.783 2.584,4.771l0,0.299c-5.864,-0.05 -11.729,-0.05 -17.643,-0.05Zm6.312,-2.684c0,-0.944 -0.795,-1.739 -1.69,-1.739c-0.894,0 -1.739,0.795 -1.739,1.739c0,0.944 0.795,1.69 1.69,1.69c0.944,0 1.739,-0.746 1.739,-1.69Zm6.759,1.69c0.944,0 1.739,-0.746 1.739,-1.69c0,-0.894 -0.795,-1.739 -1.739,-1.739c-0.944,0 -1.69,0.795 -1.74,1.689c0.05,0.945 0.796,1.74 1.74,1.74Z" style="fill:#444;"/><g id="Ogen"><path d="M18.106,14.716c0,-0.944 -0.795,-1.739 -1.69,-1.739c-0.894,0 -1.739,0.795 -1.739,1.739c0,0.944 0.795,1.69 1.69,1.69c0.944,0 1.739,-0.746 1.739,-1.69Z" style="fill:#ebebeb;"/><path d="M24.865,16.406c0.944,0 1.739,-0.746 1.739,-1.69c0,-0.894 -0.795,-1.739 -1.739,-1.739c-0.944,0 -1.69,0.795 -1.74,1.689c0.05,0.945 0.796,1.74 1.74,1.74Z" style="fill:#ebebeb;"/></g></g></g></svg>